<svg width="30" height="31" viewBox="0 0 30 31" fill="none" xmlns="http://www.w3.org/2000/svg">
<path fill-rule="evenodd" clip-rule="evenodd" d="M26.25 14.25V22C26.25 24.8284 26.25 26.2426 25.3713 27.1213C24.4926 28 23.0784 28 20.25 28H9.75C6.92157 28 5.50736 28 4.62868 27.1213C3.75 26.2426 3.75 24.8284 3.75 22V14.25C3.75 15.8937 3.75 16.7156 4.20398 17.2688C4.28709 17.3701 4.37995 17.4629 4.48121 17.546C5.03439 18 5.85626 18 7.5 18H8.55848C9.2542 18 9.60206 18 9.86395 18.1888C10.1258 18.3775 10.2358 18.7075 10.4558 19.3675L10.7942 20.3825C11.0142 21.0425 11.1242 21.3725 11.386 21.5612C11.6479 21.75 11.9958 21.75 12.6915 21.75H17.3085C18.0042 21.75 18.3521 21.75 18.614 21.5612C18.8758 21.3725 18.9858 21.0425 19.2058 20.3825L19.2058 20.3825L19.5442 19.3675C19.7642 18.7075 19.8742 18.3775 20.136 18.1888C20.3979 18 20.7458 18 21.4415 18H22.5C24.1437 18 24.9656 18 25.5188 17.546C25.6201 17.4629 25.7129 17.3701 25.796 17.2688C26.25 16.7156 26.25 15.8937 26.25 14.25Z" fill="#292A29"/>
<path d="M20 8H22.25C24.1356 8 25.0784 8 25.6642 8.58579C26.25 9.17157 26.25 10.1144 26.25 12V24C26.25 25.8856 26.25 26.8284 25.6642 27.4142C25.0784 28 24.1356 28 22.25 28H7.75C5.86438 28 4.92157 28 4.33579 27.4142C3.75 26.8284 3.75 25.8856 3.75 24V12C3.75 10.1144 3.75 9.17157 4.33579 8.58579C4.92157 8 5.86438 8 7.75 8H10" stroke="#292A29" stroke-width="2"/>
<path d="M10 13L15 16.75M15 16.75L20 13M15 16.75L15 4.25" stroke="#292A29" stroke-width="2"/>
</svg>
