<svg width="32" height="35" viewBox="0 0 32 35" fill="none" xmlns="http://www.w3.org/2000/svg">
<g clip-path="url(#clip0_153_2561)">
<path d="M17.8383 2.1875V3.5C22.8897 4.51377 26.6955 8.92774 26.6955 14.2188V15.5039C26.6955 18.7236 27.8926 21.8203 30.0515 24.2266L30.5636 24.7939C31.1448 25.4434 31.2901 26.3594 30.9303 27.1455C30.5705 27.9316 29.7816 28.4375 28.9098 28.4375H2.33832C1.46645 28.4375 0.675602 27.9316 0.31841 27.1455C-0.0387818 26.3594 0.104088 25.4434 0.683421 24.7939L1.19658 24.2266C3.35828 21.8203 4.55261 18.7236 4.55261 15.5039V14.2188C4.55261 8.92774 8.29614 4.51377 13.4098 3.5V2.1875C13.4098 0.97959 14.3993 0 15.624 0C16.8488 0 17.8383 0.97959 17.8383 2.1875ZM15.624 31.8182C14.4477 31.8182 13.3198 31.3602 12.4894 30.5399C11.6591 29.7196 11.1955 28.5438 11.1955 27.4432H20.0526C20.0526 28.5438 19.589 29.7196 18.7586 30.5399C17.9283 31.3602 16.7381 31.8182 15.624 31.8182Z" fill="#292A29"/>
</g>
<defs>
<clipPath id="clip0_153_2561">
<rect width="31" height="35" fill="white" transform="translate(0.124023)"/>
</clipPath>
</defs>
</svg>
