<svg width="31" height="26" viewBox="0 0 31 26" fill="none" xmlns="http://www.w3.org/2000/svg">
<path d="M10.85 12.8867C14.2745 12.8867 17.05 10.0884 17.05 6.63672C17.05 3.18506 14.2745 0.386719 10.85 0.386719C7.42547 0.386719 4.65 3.18506 4.65 6.63672C4.65 10.0884 7.42547 12.8867 10.85 12.8867ZM13.3058 15.2305H8.39422C3.7573 15.2305 0 19.0195 0 23.6924C0 24.6299 0.75175 25.3867 1.67884 25.3867H20.0192C20.9492 25.3867 21.7 24.6299 21.7 23.6924C21.7 19.0195 17.9412 15.2305 13.3058 15.2305ZM23.2064 16.0117H19.6293C21.855 17.8525 23.25 20.6064 23.25 23.6924C23.25 24.3174 23.0659 24.8936 22.7656 25.3867H29.45C30.3073 25.3867 31 24.6836 31 23.7803C31 19.5078 27.5319 16.0117 23.2064 16.0117ZM20.925 12.8867C23.9233 12.8867 26.35 10.4404 26.35 7.41797C26.35 4.39551 23.9233 1.94922 20.925 1.94922C19.7087 1.94922 18.5981 2.36694 17.6932 3.04834C18.2512 4.12842 18.6 5.33789 18.6 6.63672C18.6 8.37109 18.0221 9.96387 17.0699 11.2612C18.0527 12.2617 19.4137 12.8867 20.925 12.8867Z" fill="#3F3DE6"/>
</svg>
