<svg width="20" height="28" viewBox="0 0 20 28" fill="none" xmlns="http://www.w3.org/2000/svg">
<path d="M16.724 13.2828C17.7135 12.1068 18.3333 10.6039 18.3333 8.9375C18.3333 5.21498 15.3427 2.1875 11.6667 2.1875L1.66667 2.18803C0.746354 2.18803 0 2.94266 0 3.87553C0 4.8084 0.746354 5.56303 1.66667 5.56303H2.5V22.438H1.66667C0.746354 22.438 0 23.1927 0 24.1255C0 25.0584 0.746354 25.813 1.66667 25.813H13.3333C17.0094 25.813 20 22.7855 20 19.063C20 16.5998 18.6771 14.4641 16.724 13.2828ZM5.83333 5.56303H11.6667C13.5052 5.56303 15 7.07756 15 8.93803C15 10.7985 13.5052 12.313 11.6667 12.313H5.83333V5.56303ZM13.3333 22.4375H5.83333V15.6875H13.3333C15.1719 15.6875 16.6667 17.2015 16.6667 19.015C16.6667 20.8286 15.1719 22.4375 13.3333 22.4375Z" fill="#292A29"/>
</svg>
