<svg width="33" height="33" viewBox="0 0 33 33" fill="none" xmlns="http://www.w3.org/2000/svg">
<path d="M4.35004 5.63591L3.81971 5.10558L4.35004 5.63591ZM4.35004 22.415L3.81971 22.9454L4.35004 22.415ZM14.0106 22.8116L13.8151 23.5357L14.0106 22.8116ZM16.1249 24.9259L15.4008 25.1214L16.1249 24.9259ZM12.2213 23.4579H6.05715V21.9579H12.2213V23.4579ZM3.30715 20.7079V7.34302H4.80715V20.7079H3.30715ZM6.05715 4.59302H10.2286V6.09302H6.05715V4.59302ZM16.9786 11.343V26.7152H15.4786V11.343H16.9786ZM10.2286 4.59302C11.6216 4.59302 12.7418 4.59142 13.6203 4.70954C14.5204 4.83056 15.2783 5.08945 15.8802 5.69137L14.8196 6.75203C14.5428 6.47526 14.1542 6.29482 13.4205 6.19616C12.6651 6.09461 11.664 6.09302 10.2286 6.09302V4.59302ZM15.4786 11.343C15.4786 9.9076 15.477 8.90649 15.3754 8.15114C15.2768 7.41736 15.0963 7.02879 14.8196 6.75203L15.8802 5.69137C16.4821 6.29328 16.741 7.05116 16.8621 7.95127C16.9802 8.8298 16.9786 9.95001 16.9786 11.343H15.4786ZM3.30715 7.34302C3.30715 6.89281 3.30556 6.47971 3.35045 6.14581C3.39824 5.79033 3.51069 5.4146 3.81971 5.10558L4.88037 6.16624C4.87991 6.1667 4.87994 6.16671 4.88022 6.16637C4.8805 6.16602 4.88066 6.16578 4.88061 6.16585C4.88056 6.16593 4.88 6.16678 4.87901 6.16869C4.878 6.17062 4.87638 6.17394 4.87431 6.17898C4.86535 6.20076 4.85005 6.24912 4.83707 6.34568C4.80874 6.5564 4.80715 6.85041 4.80715 7.34302H3.30715ZM6.05715 6.09302C5.56454 6.09302 5.27053 6.09461 5.05981 6.12294C4.96325 6.13592 4.91489 6.15122 4.89311 6.16018C4.88807 6.16225 4.88475 6.16387 4.88282 6.16488C4.88091 6.16587 4.88006 6.16643 4.87998 6.16648C4.87991 6.16653 4.88015 6.16637 4.8805 6.16609C4.88084 6.16581 4.88083 6.16578 4.88037 6.16624L3.81971 5.10558C4.12873 4.79656 4.50446 4.68411 4.85994 4.63632C5.19385 4.59142 5.60695 4.59302 6.05715 4.59302V6.09302ZM6.05715 23.4579C5.60695 23.4579 5.19385 23.4595 4.85994 23.4146C4.50446 23.3668 4.12873 23.2544 3.81971 22.9454L4.88037 21.8847C4.88083 21.8852 4.88084 21.8851 4.8805 21.8849C4.88015 21.8846 4.87991 21.8844 4.87998 21.8845C4.88006 21.8845 4.88091 21.8851 4.88282 21.8861C4.88475 21.8871 4.88807 21.8887 4.89311 21.8908C4.91489 21.8997 4.96325 21.915 5.05981 21.928C5.27054 21.9563 5.56454 21.9579 6.05715 21.9579V23.4579ZM4.80715 20.7079C4.80715 21.2005 4.80874 21.4945 4.83707 21.7053C4.85005 21.8018 4.86535 21.8502 4.87431 21.872C4.87638 21.877 4.878 21.8803 4.87901 21.8823C4.88 21.8842 4.88056 21.885 4.88061 21.8851C4.88066 21.8852 4.8805 21.8849 4.88022 21.8846C4.87994 21.8842 4.87991 21.8842 4.88037 21.8847L3.81971 22.9454C3.51069 22.6363 3.39824 22.2606 3.35045 21.9051C3.30556 21.5712 3.30715 21.1581 3.30715 20.7079H4.80715ZM12.2213 21.9579C13.1094 21.9579 13.7017 21.9514 14.2061 22.0876L13.8151 23.5357C13.5512 23.4645 13.2067 23.4579 12.2213 23.4579V21.9579ZM15.4786 26.7152C15.4786 25.7298 15.472 25.3853 15.4008 25.1214L16.8489 24.7304C16.9851 25.2348 16.9786 25.8271 16.9786 26.7152H15.4786ZM14.2061 22.0876C15.4946 22.4354 16.5011 23.4419 16.8489 24.7304L15.4008 25.1214C15.1921 24.3483 14.5882 23.7444 13.8151 23.5357L14.2061 22.0876Z" fill="#292A29"/>
<path d="M28.1071 5.63591L28.6374 5.10558L28.1071 5.63591ZM28.1071 22.415L28.6374 22.9454L28.1071 22.415ZM18.4466 22.8116L18.6421 23.5357L18.4466 22.8116ZM16.3323 24.9259L17.0564 25.1214L16.3323 24.9259ZM20.2359 23.4579H26.4V21.9579H20.2359V23.4579ZM29.15 20.7079V7.34302H27.65V20.7079H29.15ZM26.4 4.59302H22.2286V6.09302H26.4V4.59302ZM15.4786 11.343V26.7152H16.9786V11.343H15.4786ZM22.2286 4.59302C20.8356 4.59302 19.7154 4.59142 18.8368 4.70954C17.9367 4.83056 17.1788 5.08945 16.5769 5.69137L17.6376 6.75203C17.9143 6.47526 18.3029 6.29482 19.0367 6.19616C19.792 6.09461 20.7932 6.09302 22.2286 6.09302V4.59302ZM16.9786 11.343C16.9786 9.9076 16.9802 8.90649 17.0817 8.15114C17.1804 7.41736 17.3608 7.02879 17.6376 6.75203L16.5769 5.69137C15.975 6.29328 15.7161 7.05116 15.5951 7.95127C15.477 8.8298 15.4786 9.95001 15.4786 11.343H16.9786ZM29.15 7.34302C29.15 6.89281 29.1516 6.47971 29.1067 6.14581C29.0589 5.79033 28.9465 5.4146 28.6374 5.10558L27.5768 6.16624C27.5772 6.1667 27.5772 6.16671 27.5769 6.16637C27.5767 6.16602 27.5765 6.16578 27.5765 6.16585C27.5766 6.16593 27.5771 6.16678 27.5781 6.16869C27.5792 6.17062 27.5808 6.17394 27.5828 6.17898C27.5918 6.20076 27.6071 6.24912 27.6201 6.34568C27.6484 6.5564 27.65 6.85041 27.65 7.34302H29.15ZM26.4 6.09302C26.8926 6.09302 27.1866 6.09461 27.3973 6.12294C27.4939 6.13592 27.5423 6.15122 27.564 6.16018C27.5691 6.16225 27.5724 6.16387 27.5743 6.16488C27.5762 6.16587 27.5771 6.16643 27.5772 6.16648C27.5772 6.16653 27.577 6.16637 27.5767 6.16609C27.5763 6.16581 27.5763 6.16578 27.5768 6.16624L28.6374 5.10558C28.3284 4.79656 27.9527 4.68411 27.5972 4.63632C27.2633 4.59142 26.8502 4.59302 26.4 4.59302V6.09302ZM26.4 23.4579C26.8502 23.4579 27.2633 23.4595 27.5972 23.4146C27.9527 23.3668 28.3284 23.2544 28.6374 22.9454L27.5768 21.8847C27.5763 21.8852 27.5763 21.8851 27.5767 21.8849C27.577 21.8846 27.5772 21.8844 27.5772 21.8845C27.5771 21.8845 27.5762 21.8851 27.5743 21.8861C27.5724 21.8871 27.5691 21.8887 27.564 21.8908C27.5423 21.8997 27.4939 21.915 27.3973 21.928C27.1866 21.9563 26.8926 21.9579 26.4 21.9579V23.4579ZM27.65 20.7079C27.65 21.2005 27.6484 21.4945 27.6201 21.7053C27.6071 21.8018 27.5918 21.8502 27.5828 21.872C27.5808 21.877 27.5792 21.8803 27.5781 21.8823C27.5771 21.8842 27.5766 21.885 27.5765 21.8851C27.5765 21.8852 27.5767 21.8849 27.5769 21.8846C27.5772 21.8842 27.5772 21.8842 27.5768 21.8847L28.6374 22.9454C28.9465 22.6363 29.0589 22.2606 29.1067 21.9051C29.1516 21.5712 29.15 21.1581 29.15 20.7079H27.65ZM20.2359 21.9579C19.3477 21.9579 18.7554 21.9514 18.2511 22.0876L18.6421 23.5357C18.906 23.4645 19.2504 23.4579 20.2359 23.4579V21.9579ZM16.9786 26.7152C16.9786 25.7298 16.9851 25.3853 17.0564 25.1214L15.6082 24.7304C15.472 25.2348 15.4786 25.8271 15.4786 26.7152H16.9786ZM18.2511 22.0876C16.9626 22.4354 15.9561 23.4419 15.6082 24.7304L17.0564 25.1214C17.2651 24.3483 17.869 23.7444 18.6421 23.5357L18.2511 22.0876Z" fill="#292A29"/>
</svg>
