<svg width="24" height="23" viewBox="0 0 24 23" fill="none" xmlns="http://www.w3.org/2000/svg">
<path d="M4 8.625C4 5.91442 4 4.55914 4.87868 3.71707C5.75736 2.875 7.17157 2.875 10 2.875H14C16.8284 2.875 18.2426 2.875 19.1213 3.71707C20 4.55914 20 5.91442 20 8.625V15.1681C20 17.7396 20 19.0254 19.1557 19.4186C18.3114 19.8119 17.2565 19.0175 15.1465 17.4288L14.4713 16.9203C13.2849 16.027 12.6917 15.5804 12 15.5804C11.3083 15.5804 10.7151 16.027 9.52871 16.9203L8.85346 17.4288C6.74355 19.0175 5.68859 19.8119 4.84429 19.4186C4 19.0254 4 17.7396 4 15.1681V8.625Z" stroke="#292A29"/>
</svg>
