<svg width="40" height="38" viewBox="0 0 40 38" fill="none" xmlns="http://www.w3.org/2000/svg">
<path d="M6.52066 13.9559C6.52066 9.56997 6.52066 7.37702 7.95306 6.0145C9.38545 4.65198 11.6909 4.65198 16.3017 4.65198H22.8223C27.4331 4.65198 29.7385 4.65198 31.1709 6.0145C32.6033 7.37702 32.6033 9.56997 32.6033 13.9559V24.5431C32.6033 28.7039 32.6033 30.7843 31.227 31.4206C29.8507 32.057 28.1309 30.7716 24.6914 28.201L23.5906 27.3783C21.6566 25.9328 20.6896 25.2101 19.562 25.2101C18.4344 25.2101 17.4674 25.9328 15.5334 27.3783L14.4326 28.201C10.9931 30.7716 9.27334 32.057 7.897 31.4206C6.52066 30.7843 6.52066 28.7039 6.52066 24.5431V13.9559Z" fill="#292A29"/>
</svg>
