<svg width="27" height="28" viewBox="0 0 27 28" fill="none" xmlns="http://www.w3.org/2000/svg">
<path d="M21.9762 13.5246V19.668C21.9762 21.5537 21.9762 22.4965 21.3904 23.0823C20.8046 23.6681 19.8618 23.6681 17.9762 23.6681H7.21286C5.65673 23.6681 4.39523 22.4066 4.39523 20.8504V20.8504C4.39523 19.2943 5.65673 18.0328 7.21286 18.0328H17.9762C19.8618 18.0328 20.8046 18.0328 21.3904 17.447C21.9762 16.8612 21.9762 15.9184 21.9762 14.0328V7.38116C21.9762 5.49555 21.9762 4.55274 21.3904 3.96695C20.8046 3.38116 19.8618 3.38116 17.9762 3.38116H8.39523C6.50962 3.38116 5.56681 3.38116 4.98102 3.96695C4.39523 4.55274 4.39523 5.49555 4.39523 7.38116V20.8504" stroke="#292A29" stroke-width="1.5"/>
<path d="M9.88928 11.2705L11.3709 12.7902C11.7634 13.1928 12.4104 13.1928 12.8029 12.7902L16.4821 9.01642" stroke="#292A29" stroke-width="1.5" stroke-linecap="round"/>
</svg>
