<svg width="22" height="26" viewBox="0 0 22 26" fill="none" xmlns="http://www.w3.org/2000/svg">
<path d="M7.85714 1.94922V3.51172H14.1429V1.94922C14.1429 1.08643 14.8451 0.386719 15.7143 0.386719C16.5835 0.386719 17.2857 1.08643 17.2857 1.94922V3.51172H19.6429C20.9442 3.51172 22 4.56104 22 5.85547V8.19922H0V5.85547C0 4.56104 1.05531 3.51172 2.35714 3.51172H4.71429V1.94922C4.71429 1.08643 5.41652 0.386719 6.28571 0.386719C7.15491 0.386719 7.85714 1.08643 7.85714 1.94922ZM0 9.76172H22V23.043C22 24.3369 20.9442 25.3867 19.6429 25.3867H2.35714C1.05531 25.3867 0 24.3369 0 23.043V9.76172ZM16.1121 15.2354C16.6129 14.8203 16.6129 14.0781 16.1121 13.6191C15.6946 13.165 14.9482 13.165 14.4866 13.6191L9.82143 18.2627L7.4692 15.9629C7.05179 15.5088 6.30536 15.5088 5.84375 15.9629C5.38705 16.4219 5.38705 17.1641 5.84375 17.5791L8.98661 20.7041C9.44821 21.2021 10.1946 21.2021 10.6121 20.7041L16.1121 15.2354Z" fill="#3F3DE6"/>
</svg>
