<svg width="22" height="25" viewBox="0 0 22 25" fill="none" xmlns="http://www.w3.org/2000/svg">
<path d="M7.85714 1.5625V3.125H14.1429V1.5625C14.1429 0.699707 14.8451 0 15.7143 0C16.5835 0 17.2857 0.699707 17.2857 1.5625V3.125H19.6429C20.9442 3.125 22 4.17432 22 5.46875V7.8125H0V5.46875C0 4.17432 1.05531 3.125 2.35714 3.125H4.71429V1.5625C4.71429 0.699707 5.41652 0 6.28571 0C7.15491 0 7.85714 0.699707 7.85714 1.5625ZM0 9.375H22V22.6562C22 23.9502 20.9442 25 19.6429 25H2.35714C1.05531 25 0 23.9502 0 22.6562V9.375ZM16.1121 14.8486C16.6129 14.4336 16.6129 13.6914 16.1121 13.2324C15.6946 12.7783 14.9482 12.7783 14.4866 13.2324L9.82143 17.876L7.4692 15.5762C7.05179 15.1221 6.30536 15.1221 5.84375 15.5762C5.38705 16.0352 5.38705 16.7773 5.84375 17.1924L8.98661 20.3174C9.44821 20.8154 10.1946 20.8154 10.6121 20.3174L16.1121 14.8486Z" fill="#292A29"/>
</svg>
