<svg width="25" height="25" viewBox="0 0 25 25" fill="none" xmlns="http://www.w3.org/2000/svg">
<path d="M20.8333 12.1667C20.8333 8.39545 20.8333 6.50983 19.6618 5.33826C18.4902 4.16669 16.6046 4.16669 12.8333 4.16669H12.1667C8.39545 4.16669 6.50983 4.16669 5.33826 5.33826C4.16669 6.50983 4.16669 8.39545 4.16669 12.1667V18.8333C4.16669 19.7762 4.16669 20.2476 4.45958 20.5405C4.75247 20.8333 5.22388 20.8333 6.16669 20.8333H12.8333C16.6046 20.8333 18.4902 20.8333 19.6618 19.6618C20.8333 18.4902 20.8333 16.6046 20.8333 12.8333V12.1667Z" stroke="#292A29"/>
<path d="M9.375 10.4167L15.625 10.4167" stroke="#292A29" stroke-linecap="round" stroke-linejoin="round"/>
<path d="M9.375 14.5833H12.5" stroke="#292A29" stroke-linecap="round" stroke-linejoin="round"/>
</svg>
