<svg width="34" height="34" viewBox="0 0 34 34" fill="none" xmlns="http://www.w3.org/2000/svg">
<path fill-rule="evenodd" clip-rule="evenodd" d="M26.0581 8.1317L18.6742 4.96717C17.6051 4.50899 16.3949 4.50899 15.3259 4.96717L7.94196 8.1317C7.42107 8.35493 7.08334 8.86711 7.08334 9.43382V16.8754C7.08334 19.6205 8.40905 22.1966 10.6428 23.7922L15.3532 27.1567C16.3383 27.8604 17.6617 27.8604 18.6469 27.1567L23.3572 23.7922C25.591 22.1966 26.9167 19.6205 26.9167 16.8754V9.43382C26.9167 8.86711 26.579 8.35493 26.0581 8.1317ZM22.0309 13.3747C22.3759 12.9434 22.306 12.3141 21.8747 11.9691C21.4434 11.6241 20.8142 11.694 20.4691 12.1253L15.5004 18.3362L13.4571 16.2929C13.0666 15.9024 12.4334 15.9024 12.0429 16.2929C11.6524 16.6834 11.6524 17.3166 12.0429 17.7071L14.4812 20.1454C15.1134 20.7776 16.1547 20.7199 16.7132 20.0218L22.0309 13.3747Z" fill="#292A29"/>
</svg>
