<svg width="26" height="26" viewBox="0 0 26 26" fill="none" xmlns="http://www.w3.org/2000/svg">
<path d="M13 0C20.1805 0 26 5.81953 26 13C26 20.1805 20.1805 26 13 26C5.81953 26 0 20.1805 0 13C0 5.81953 5.81953 0 13 0ZM5.35234 14.1477L10.5879 19.3832C11.2227 20.018 12.251 20.018 12.8857 19.3832C13.5205 18.7484 13.5205 17.7201 12.8857 17.0854L10.4203 14.625H19.5C20.3988 14.625 21.125 13.8988 21.125 13C21.125 12.1012 20.3983 11.375 19.5 11.375H10.4203L12.9279 8.86742C13.5627 8.23266 13.5627 7.20434 12.9279 6.56957C12.2931 5.9348 11.2648 5.9348 10.63 6.56957L5.39449 11.8051C4.94609 12.2535 4.875 12.7512 4.875 13C4.875 13.2488 4.94609 13.7465 5.35234 14.1477Z" fill="#292A29"/>
</svg>
