<svg width="27" height="28" viewBox="0 0 27 28" fill="none" xmlns="http://www.w3.org/2000/svg">
<g clip-path="url(#clip0_29_1987)">
<path d="M27 13.8868C27 21.3435 20.9566 27.3868 13.5 27.3868C6.04336 27.3868 0 21.3435 0 13.8868C0 6.4302 6.04336 0.386841 13.5 0.386841C20.9566 0.386841 27 6.4302 27 13.8868ZM9.28125 9.24622V18.5275C9.28125 18.9863 9.5291 19.4081 9.92988 19.6296C10.3254 19.8564 10.8158 19.8458 11.2061 19.6085L18.7998 14.9679C19.1742 14.7359 19.4062 14.3298 19.4062 13.8868C19.4062 13.4439 19.1742 13.0378 18.7998 12.8058L11.2061 8.16516C10.8158 7.8804 10.3254 7.91731 9.92988 8.14407C9.5291 8.36555 9.28125 8.78743 9.28125 9.24622Z" fill="#292A29"/>
</g>
<defs>
<clipPath id="clip0_29_1987">
<rect width="27" height="27" fill="white" transform="translate(0 0.386841)"/>
</clipPath>
</defs>
</svg>
