<svg width="29" height="29" viewBox="0 0 29 29" fill="none" xmlns="http://www.w3.org/2000/svg">
<path d="M13.1406 6.79688C13.1406 6.04355 13.7467 5.4375 14.5 5.4375C15.2533 5.4375 15.8594 6.04355 15.8594 6.79688V13.775L20.6908 16.9922C21.3139 17.4113 21.4838 18.2553 21.0193 18.8783C20.6512 19.5014 19.8072 19.6713 19.1842 19.2068L13.7467 15.5818C13.3672 15.3779 13.1406 14.9531 13.1406 14.449V6.79688ZM14.5 0C22.509 0 29 6.49102 29 14.5C29 22.509 22.509 29 14.5 29C6.49102 29 0 22.509 0 14.5C0 6.49102 6.49102 0 14.5 0ZM2.71875 14.5C2.71875 21.008 7.99199 26.2812 14.5 26.2812C21.008 26.2812 26.2812 21.008 26.2812 14.5C26.2812 7.99199 21.008 2.71875 14.5 2.71875C7.99199 2.71875 2.71875 7.99199 2.71875 14.5Z" fill="#292A29"/>
</svg>
