<svg width="28" height="28" viewBox="0 0 28 28" fill="none" xmlns="http://www.w3.org/2000/svg">
<path d="M14 28C6.26719 28 0 21.7328 0 14C0 6.26719 6.26719 0 14 0C21.7328 0 28 6.26719 28 14C28 21.7328 21.7328 28 14 28ZM12.6875 14C12.6875 14.4375 12.9062 14.8477 13.2727 15.0445L18.5227 18.5445C19.1242 18.993 19.9391 18.8289 20.2945 18.2273C20.743 17.6258 20.5789 16.8109 19.9773 16.4062L15.3125 13.3V6.5625C15.3125 5.83516 14.7273 5.25 13.9508 5.25C13.2727 5.25 12.6383 5.83516 12.6383 6.5625L12.6875 14Z" fill="#292A29"/>
</svg>
