<svg width="31" height="25" viewBox="0 0 31 25" fill="none" xmlns="http://www.w3.org/2000/svg">
<g clip-path="url(#clip0_154_1067)">
<path d="M20.1499 8.59375C20.1499 3.84766 15.6403 0 10.0749 0C4.50941 0 -0.000123822 3.84766 -0.000123822 8.59375C-0.000123822 10.5259 0.75647 12.3027 2.01827 13.7402C1.22438 15.3398 0.118064 16.5391 0.100626 16.5566C-0.00109257 16.6643 -0.0287019 16.824 0.0308277 16.9646C0.0919074 17.1045 0.222786 17.1875 0.370907 17.1875C2.22849 17.1875 3.79835 16.6445 5.00831 16.0137C6.50019 16.7529 8.22456 17.1875 10.0749 17.1875C15.6403 17.1875 20.1499 13.3398 20.1499 8.59375ZM29.043 21.665C30.2636 20.21 30.9999 18.3887 30.9999 16.4062C30.9999 11.6602 26.8343 7.8125 21.6999 7.8125C21.6846 7.8125 21.6699 7.8145 21.6547 7.8146C21.6757 8.07129 21.6999 8.33008 21.6999 8.59375C21.6999 13.4092 17.8404 17.4414 12.6857 18.4814C13.6932 22.2217 17.2969 25 21.6999 25C23.3317 25 24.8638 24.609 26.1973 23.9268C27.3768 24.5117 28.8735 25 30.6269 25C30.7751 25 30.9059 24.9158 30.9669 24.7751C31.0265 24.6346 30.9988 24.475 30.8971 24.3672C30.8836 24.3506 29.8325 23.208 29.043 21.665Z" fill="#292A29"/>
</g>
<defs>
<clipPath id="clip0_154_1067">
<rect width="31" height="25" fill="white"/>
</clipPath>
</defs>
</svg>
