<svg width="29" height="29" viewBox="0 0 29 29" fill="none" xmlns="http://www.w3.org/2000/svg">
<circle cx="14.5" cy="14.5" r="10.5" fill="white"/>
<path fill-rule="evenodd" clip-rule="evenodd" d="M25.375 14.5C25.375 20.5061 20.5061 25.375 14.5 25.375C8.4939 25.375 3.625 20.5061 3.625 14.5C3.625 8.4939 8.4939 3.625 14.5 3.625C20.5061 3.625 25.375 8.4939 25.375 14.5ZM14.5 21.5417C13.9477 21.5417 13.5 21.094 13.5 20.5417V15.5H8.45833C7.90605 15.5 7.45833 15.0523 7.45833 14.5C7.45833 13.9477 7.90605 13.5 8.45833 13.5H13.5V8.45833C13.5 7.90605 13.9477 7.45833 14.5 7.45833C15.0523 7.45833 15.5 7.90605 15.5 8.45833V13.5H20.5417C21.094 13.5 21.5417 13.9477 21.5417 14.5C21.5417 15.0523 21.094 15.5 20.5417 15.5H15.5V20.5417C15.5 21.094 15.0523 21.5417 14.5 21.5417Z" fill="#292A29"/>
</svg>
