<svg width="36" height="36" viewBox="0 0 36 36" fill="none" xmlns="http://www.w3.org/2000/svg">
<path d="M31.1195 13.1109C31.3 13.5813 31.1469 14.1117 30.775 14.4563L28.407 16.6109C28.4672 17.0648 28.5 17.5297 28.5 18C28.5 18.4703 28.4672 18.9352 28.407 19.3891L30.775 21.5437C31.1469 21.8883 31.3 22.4187 31.1195 22.8891C30.8789 23.5398 30.5891 24.1688 30.2609 24.7648L30.0039 25.2078C29.643 25.8094 29.2383 26.3781 28.7953 26.9195C28.4672 27.3078 27.9367 27.4445 27.4555 27.2914L24.4094 26.318C23.6766 26.8813 22.818 27.3516 22.0031 27.7125L21.3195 30.8352C21.2102 31.3273 20.8273 31.6773 20.3242 31.8086C19.5695 31.9344 18.793 32 17.9508 32C17.207 32 16.4305 31.9344 15.6758 31.8086C15.1727 31.6773 14.7898 31.3273 14.6805 30.8352L13.9969 27.7125C13.1328 27.3516 12.3234 26.8813 11.5906 26.318L8.54672 27.2914C8.06329 27.4445 7.53008 27.3078 7.20633 26.9195C6.76282 26.3781 6.35813 25.8094 5.99719 25.2078L5.74125 24.7648C5.4093 24.1688 5.12055 23.5398 4.87829 22.8891C4.7011 22.4187 4.8504 21.8883 5.22555 21.5437L7.59133 19.3891C7.53118 18.9352 7.5 18.4703 7.5 18C7.5 17.5297 7.53118 17.0648 7.59133 16.6109L5.22555 14.4563C4.8504 14.1117 4.7011 13.5867 4.87829 13.1109C5.12055 12.4602 5.40985 11.8313 5.74125 11.2352L5.99665 10.7922C6.35813 10.1906 6.76282 9.62187 7.20633 9.0832C7.53008 8.69219 8.06329 8.55656 8.54672 8.71078L11.5906 9.68203C12.3234 9.11656 13.1328 8.64625 13.9969 8.28914L14.6805 5.16648C14.7898 4.66992 15.1727 4.27562 15.6758 4.19195C16.4305 4.06568 17.207 4 18 4C18.793 4 19.5695 4.06568 20.3242 4.19195C20.8273 4.27562 21.2102 4.66992 21.3195 5.16648L22.0031 8.28914C22.818 8.64625 23.6766 9.11656 24.4094 9.68203L27.4555 8.71078C27.9367 8.55656 28.4672 8.69219 28.7953 9.0832C29.2383 9.62187 29.643 10.1906 30.0039 10.7922L30.2609 11.2352C30.5891 11.8313 30.8789 12.4602 31.1195 13.1109ZM18 22.375C20.4172 22.375 22.375 20.4172 22.375 17.9508C22.375 15.5828 20.4172 13.5758 18 13.5758C15.5828 13.5758 13.625 15.5828 13.625 17.9508C13.625 20.4172 15.5828 22.375 18 22.375Z" fill="#292A29"/>
</svg>
