<svg width="33" height="32" viewBox="0 0 33 32" fill="none" xmlns="http://www.w3.org/2000/svg">
<g clip-path="url(#clip0_169_1147)">
<path d="M30 16C30 23.4566 23.9566 29.5 16.5 29.5C9.04336 29.5 3 23.4566 3 16C3 8.54336 9.04336 2.5 16.5 2.5C23.9566 2.5 30 8.54336 30 16ZM12.2812 11.3594V20.6406C12.2812 21.0994 12.5291 21.5213 12.9299 21.7428C13.3254 21.9695 13.8158 21.959 14.2061 21.7217L21.7998 17.0811C22.1742 16.849 22.4062 16.443 22.4062 16C22.4062 15.557 22.1742 15.151 21.7998 14.9189L14.2061 10.2783C13.8158 9.99355 13.3254 10.0305 12.9299 10.2572C12.5291 10.4787 12.2812 10.9006 12.2812 11.3594Z" fill="#292A29"/>
</g>
<defs>
<clipPath id="clip0_169_1147">
<rect width="27" height="27" fill="white" transform="translate(3 2.5)"/>
</clipPath>
</defs>
</svg>
