<svg width="40" height="38" viewBox="0 0 40 38" fill="none" xmlns="http://www.w3.org/2000/svg">
<g clip-path="url(#clip0_169_1143)">
<path d="M20 5.73962C11.408 5.73962 4.4461 11.3826 4.4461 18.3469C4.4461 21.3551 5.74341 24.1038 7.90782 26.2689C7.14827 29.3219 4.61016 32.0434 4.57978 32.0737C4.44306 32.2101 4.40508 32.4213 4.48863 32.6031C4.5647 32.7847 4.73308 32.8938 4.93056 32.8938C8.95617 32.8938 11.9245 30.9688 13.474 29.7789C15.4549 30.5239 17.6667 30.9542 20 30.9542C28.592 30.9542 35.5009 25.3094 35.5009 18.3469C35.5009 11.3844 28.592 5.73962 20 5.73962Z" fill="#292A29"/>
</g>
<defs>
<clipPath id="clip0_169_1143">
<rect width="31.1111" height="31.0333" fill="white" transform="translate(4.44446 3.80005)"/>
</clipPath>
</defs>
</svg>
