<svg width="29" height="27" viewBox="0 0 29 27" fill="none" xmlns="http://www.w3.org/2000/svg">
<path d="M26.5833 0H2.41667C1.08247 0 0 1.13379 0 2.53125V19.4062C0 20.8037 1.08247 21.9375 2.41667 21.9375H12.0833L11.2778 24.4688H7.65278C6.98819 24.4688 6.44444 25.0383 6.44444 25.7344C6.44444 26.4305 6.98819 27 7.65278 27H21.3472C22.0143 27 22.5556 26.4331 22.5556 25.7344C22.5556 25.0356 22.0143 24.4688 21.3472 24.4688H17.7222L16.9167 21.9375H26.5833C27.9175 21.9375 29 20.8037 29 19.4062V2.53125C29 1.13379 27.9175 0 26.5833 0ZM25.7778 15.1875H3.22222V3.375H25.7778V15.1875Z" fill="#292A29"/>
<path d="M15.25 6.61328C15.25 6.19907 14.9142 5.86328 14.5 5.86328C14.0858 5.86328 13.75 6.19907 13.75 6.61328H15.25ZM13.75 12.6133C13.75 13.0275 14.0858 13.3633 14.5 13.3633C14.9142 13.3633 15.25 13.0275 15.25 12.6133H13.75ZM13.75 6.61328V12.6133H15.25V6.61328H13.75Z" fill="#292A29"/>
<path d="M17.4 10.3633C17.8142 10.3633 18.15 10.0275 18.15 9.61328C18.15 9.19907 17.8142 8.86328 17.4 8.86328L17.4 10.3633ZM11.6 8.86328C11.1858 8.86328 10.85 9.19907 10.85 9.61328C10.85 10.0275 11.1858 10.3633 11.6 10.3633L11.6 8.86328ZM17.4 8.86328L11.6 8.86328L11.6 10.3633L17.4 10.3633L17.4 8.86328Z" fill="#292A29"/>
</svg>
