<svg width="25" height="25" viewBox="0 0 25 25" fill="none" xmlns="http://www.w3.org/2000/svg">
<path d="M0 12.5C0 5.5957 5.5957 0 12.5 0C19.4043 0 25 5.5957 25 12.5C25 19.4043 19.4043 25 12.5 25C5.5957 25 0 19.4043 0 12.5ZM8.0127 15.8936C7.72949 15.5664 7.23633 15.5322 6.90918 15.8154C6.58203 16.0986 6.54785 16.5918 6.83105 16.9189C7.91504 18.1689 9.80957 19.5312 12.4561 19.5312C15.1904 19.5312 17.0801 18.1689 18.1689 16.9189C18.4521 16.5918 18.418 16.0986 18.0908 15.8154C17.7637 15.5322 17.2705 15.5664 16.9873 15.8936C16.1084 16.9043 14.6191 17.9688 12.4561 17.9688C10.3809 17.9688 8.88672 16.9043 8.0127 15.8936ZM8.61328 8.59375C7.74902 8.59375 7.05078 9.29199 7.05078 10.1562C7.05078 11.0205 7.74902 11.7188 8.61328 11.7188C9.47266 11.7188 10.1758 11.0205 10.1758 10.1562C10.1758 9.29199 9.47266 8.59375 8.61328 8.59375ZM16.4258 11.7188C17.2852 11.7188 17.9883 11.0205 17.9883 10.1562C17.9883 9.29199 17.2852 8.59375 16.4258 8.59375C15.5615 8.59375 14.8633 9.29199 14.8633 10.1562C14.8633 11.0205 15.5615 11.7188 16.4258 11.7188Z" fill="#292A29"/>
</svg>
