<svg width="25" height="25" viewBox="0 0 25 25" fill="none" xmlns="http://www.w3.org/2000/svg">
<path d="M4.63611 14.4877L11.8784 21.2911L11.8784 21.2911C12.1418 21.5385 12.2734 21.6622 12.4307 21.6842C12.4767 21.6906 12.5233 21.6906 12.5693 21.6842C12.7266 21.6622 12.8582 21.5385 13.1216 21.2911L20.3639 14.4877C22.4016 12.5736 22.649 9.42356 20.9352 7.21467L20.613 6.79934C18.5628 4.15687 14.4475 4.60003 13.0069 7.61841C12.8034 8.04477 12.1965 8.04477 11.993 7.61841C10.5525 4.60003 6.4372 4.15688 4.38701 6.79934L4.06477 7.21468C2.35098 9.42356 2.59843 12.5736 4.63611 14.4877Z" stroke="#292A29"/>
</svg>
