<svg width="20" height="25" viewBox="0 0 20 25" fill="none" xmlns="http://www.w3.org/2000/svg">
<path d="M13.3333 0V6.25H20L13.3333 0ZM11.6667 6.25V0H2.5C1.11927 0 0 1.04932 0 2.34375V22.6562C0 23.9502 1.11927 25 2.5 25H17.5C18.8807 25 20 23.9507 20 22.6562V7.8125H13.3802C12.4115 7.8125 11.6667 7.11426 11.6667 6.25ZM15 14.7314V16.5171C15 16.8896 14.6823 17.1875 14.2865 17.1875L11.6667 17.1436V19.5991C11.6667 20.0146 11.349 20.3125 10.9531 20.3125H9.04688C8.65104 20.3125 8.33333 20.0146 8.33333 19.6436V17.1436L5.71354 17.1875C5.31771 17.1875 5 16.8896 5 16.5186V14.7314C5 14.3604 5.31771 14.0625 5.71354 14.0625H8.33333V11.6064C8.33333 11.2354 8.65104 10.9375 9.04688 10.9375H10.9516C11.349 10.9375 11.6667 11.2354 11.6667 11.6064V14.0625H14.2859C14.6823 14.0625 15 14.3604 15 14.7314Z" fill="#292A29"/>
</svg>
