<svg width="25" height="29" viewBox="0 0 25 29" fill="none" xmlns="http://www.w3.org/2000/svg">
<g clip-path="url(#clip0_154_1214)">
<path d="M25 18.0741C25 24.1234 19.3945 29.0001 12.5 29.0001C5.60547 29.0001 0 24.1217 0 18.1251C0 14.802 1.8112 12.0759 3.55273 10.5296C4.52734 9.58938 6.25 10.1841 6.25 11.4132V16.256C6.25 18.248 8.07096 19.9093 10.362 19.9342C12.6888 19.9659 14.5833 18.329 14.5833 16.3126C14.5833 11.3283 3.18359 10.8683 11.1882 0.611844C12.0671 -0.505109 14.0625 0.00182496 14.0625 1.34987C14.0039 7.19348 25 8.47923 25 18.0741Z" fill="#292A29"/>
</g>
<defs>
<clipPath id="clip0_154_1214">
<rect width="25" height="29" fill="white"/>
</clipPath>
</defs>
</svg>
