<svg width="25" height="29" viewBox="0 0 25 29" fill="none" xmlns="http://www.w3.org/2000/svg">
<path d="M8.14638 2.49243C7.91467 2.16101 8.15178 1.70593 8.55616 1.70593H17.9144C18.3188 1.70593 18.5559 2.16101 18.3242 2.49243L13.6451 9.18508C13.446 9.46976 13.0245 9.46976 12.8255 9.18508L8.14638 2.49243ZM2.394 10.2689C1.99686 10.2689 1.75823 9.82822 1.97529 9.49564L6.0017 3.32656C6.19528 3.02997 6.62736 3.02312 6.83024 3.31343L11.1416 9.48251C11.3732 9.81393 11.1361 10.2689 10.7317 10.2689H2.394ZM19.6403 3.31199C19.8432 3.02163 20.2753 3.02848 20.4689 3.32513L24.4954 9.49568C24.7125 9.82826 24.4738 10.2689 24.0767 10.2689H15.7387C15.3344 10.2689 15.0973 9.81397 15.3289 9.48255L19.6403 3.31199ZM13.773 27.0212C13.6351 27.1978 13.4375 27.2942 13.2353 27.2942C13.0331 27.2942 12.8376 27.1963 12.699 27.0233L2.1272 12.7795C1.88233 12.4496 2.11783 11.9815 2.5287 11.9815H23.9434C24.3543 11.9815 24.5898 12.4496 24.3449 12.7795L13.773 27.0212Z" fill="#292A29"/>
</svg>
