<svg width="25" height="25" viewBox="0 0 25 25" fill="none" xmlns="http://www.w3.org/2000/svg">
<path d="M23.4375 6.25V16.4062C23.4375 21.145 19.5825 25 14.8438 25H13.002C10.3936 25 7.93848 23.9844 6.09766 22.1396L0.575195 16.6172C0.190723 16.2354 0 15.7324 0 15.2344C0 14.1943 0.837402 13.2812 1.95312 13.2812C2.45264 13.2812 2.95264 13.472 3.33398 13.8535L6.25 16.7676V3.125C6.25 2.26221 6.94971 1.5625 7.8125 1.5625C8.67529 1.5625 9.375 2.26221 9.375 3.125L9.37856 11.7188C9.37988 12.1484 9.72656 12.5 10.1562 12.5C10.5859 12.5 10.9409 12.1502 10.9409 11.7188L10.9375 1.5625C10.9375 0.699707 11.6372 0 12.5 0C13.3628 0 14.0625 0.699707 14.0625 1.5625L14.0649 11.7188C14.0649 12.1502 14.4121 12.5 14.8437 12.5C15.2753 12.5 15.625 12.1484 15.625 11.7188V3.125C15.625 2.26221 16.3247 1.5625 17.1875 1.5625C18.0503 1.5625 18.75 2.26221 18.75 3.125L18.7536 11.7188C18.7536 12.1502 19.0998 12.5 19.5314 12.5C19.963 12.5 20.3125 12.1484 20.3125 11.7188V6.25C20.3125 5.38721 21.0122 4.6875 21.875 4.6875C22.7378 4.6875 23.4375 5.38574 23.4375 6.25Z" fill="#292A29"/>
</svg>
