<svg width="24" height="28" viewBox="0 0 24 28" fill="none" xmlns="http://www.w3.org/2000/svg">
<path d="M21 0H3C1.34312 0 0 1.17523 0 2.625V25.375C0 26.8242 1.34312 28 3 28H21C22.6569 28 24 26.8248 24 25.375V2.625C24 1.17523 22.6562 0 21 0ZM12 7C14.2094 7 16 8.5668 16 10.5C16 12.4332 14.2094 14 12 14C9.79062 14 8 12.4305 8 10.5C8 8.56953 9.79375 7 12 7ZM18 21H6C5.44775 21 5 20.6082 5 20.125C5 17.7078 7.2375 15.75 10 15.75H14C16.7612 15.75 19 17.7089 19 20.125C19 20.6063 18.55 21 18 21Z" fill="#292A29"/>
</svg>
