<svg width="28" height="29" viewBox="0 0 28 29" fill="none" xmlns="http://www.w3.org/2000/svg">
<g clip-path="url(#clip0_156_1374)">
<path d="M24.4508 2.25H3.45079C1.56626 2.25 -0.000488281 3.8168 -0.000488281 5.75V23.25C-0.000488281 25.1832 1.56631 26.75 3.45029 26.75H24.4503C26.3835 26.75 27.9503 25.1832 27.9503 23.25V5.75C27.9508 3.8168 26.4305 2.25 24.4508 2.25ZM6.07579 5.75C7.52556 5.75 8.70079 6.92523 8.70079 8.375C8.70079 9.82477 7.57423 11 6.07579 11C4.57735 11 3.45079 9.82477 3.45079 8.375C3.45079 6.92523 4.6747 5.75 6.07579 5.75ZM24.3961 22.7906C24.243 23.075 23.9477 23.25 23.625 23.25H4.48493C4.15566 23.25 3.85438 23.0652 3.70509 22.7715C3.55579 22.478 3.58395 22.1256 3.77804 21.8593L7.60616 16.6093C7.7711 16.3813 8.0336 16.25 8.31251 16.25C8.59141 16.25 8.85479 16.3835 9.01962 16.6095L10.7948 19.0437L15.8971 11.4366C16.0617 11.1477 16.3352 11 16.625 11C16.9149 11 17.191 11.1461 17.3529 11.3896L24.3529 21.8896C24.5328 22.1562 24.5492 22.5008 24.3961 22.7906Z" fill="#292A29"/>
</g>
<defs>
<clipPath id="clip0_156_1374">
<rect width="28" height="28" fill="white" transform="translate(0 0.5)"/>
</clipPath>
</defs>
</svg>
