<svg width="21" height="28" viewBox="0 0 21 28" fill="none" xmlns="http://www.w3.org/2000/svg">
<path d="M21 3.87555C21 4.80842 20.2174 5.56305 19.25 5.56305H16.0415L8.75164 22.438H12.25C13.2174 22.438 14 23.1927 14 24.1255C14 25.0584 13.2174 25.813 12.25 25.813H1.75C0.782578 25.813 0 25.0584 0 24.1255C0 23.1927 0.782578 22.438 1.75 22.438H4.95852L12.2484 5.56305H8.75C7.78258 5.56305 7 4.80842 7 3.87555C7 2.94268 7.78258 2.18805 8.75 2.18805H19.25C20.218 2.18805 21 2.94321 21 3.87555Z" fill="#292A29"/>
</svg>
