<svg width="45" height="29" viewBox="0 0 45 29" fill="none" xmlns="http://www.w3.org/2000/svg">
<rect width="45" height="29" rx="2" fill="#292A29"/>
<rect x="17" y="7" width="23" height="15" rx="2" fill="#79797C"/>
<path d="M9 14.5C10.2625 14.5 11.2857 13.4926 11.2857 12.25C11.2857 11.0074 10.2625 10 9 10C7.7375 10 6.71429 11.0074 6.71429 12.25C6.71429 13.4926 7.7375 14.5 9 14.5ZM9.90536 15.3438H8.09464C6.38518 15.3438 5 16.7078 5 18.39C5 18.7275 5.27714 19 5.61893 19H12.3804C12.7232 19 13 18.7275 13 18.39C13 16.7078 11.6143 15.3438 9.90536 15.3438Z" fill="white"/>
</svg>
