<svg width="45" height="29" viewBox="0 0 45 29" fill="none" xmlns="http://www.w3.org/2000/svg">
<rect width="45" height="29" rx="2" fill="#292A29"/>
<path d="M14.5 14.1875C16.2359 14.1875 17.6429 12.8023 17.6429 11.0938C17.6429 9.38518 16.2359 8 14.5 8C12.7641 8 11.3571 9.38518 11.3571 11.0938C11.3571 12.8023 12.7641 14.1875 14.5 14.1875ZM15.7449 15.3477H13.2551C10.9046 15.3477 9 17.2232 9 19.5363C9 20.0004 9.38107 20.375 9.85103 20.375H19.148C19.6194 20.375 20 20.0004 20 19.5363C20 17.2232 18.0946 15.3477 15.7449 15.3477Z" fill="white"/>
<path d="M32.5 8.8125C33.2891 8.8125 33.9286 8.18287 33.9286 7.40625C33.9286 6.62963 33.2891 6 32.5 6C31.7109 6 31.0714 6.62963 31.0714 7.40625C31.0714 8.18287 31.7109 8.8125 32.5 8.8125ZM33.0658 9.33984H31.9342C30.8657 9.33984 30 10.1924 30 11.2438C30 11.4547 30.1732 11.625 30.3868 11.625H34.6127C34.827 11.625 35 11.4547 35 11.2438C35 10.1924 34.1339 9.33984 33.0658 9.33984Z" fill="white"/>
<path d="M32.5 19.8125C33.2891 19.8125 33.9286 19.1829 33.9286 18.4062C33.9286 17.6296 33.2891 17 32.5 17C31.7109 17 31.0714 17.6296 31.0714 18.4062C31.0714 19.1829 31.7109 19.8125 32.5 19.8125ZM33.0658 20.3398H31.9342C30.8657 20.3398 30 21.1924 30 22.2438C30 22.4547 30.1732 22.625 30.3868 22.625H34.6127C34.827 22.625 35 22.4547 35 22.2438C35 21.1924 34.1339 20.3398 33.0658 20.3398Z" fill="white"/>
</svg>
