<svg width="45" height="29" viewBox="0 0 45 29" fill="none" xmlns="http://www.w3.org/2000/svg">
<rect width="45" height="29" rx="2" fill="#292A29"/>
<path d="M8.66667 10C9.50833 10 10.1905 9.3284 10.1905 8.5C10.1905 7.6716 9.50833 7 8.66667 7C7.825 7 7.14286 7.6716 7.14286 8.5C7.14286 9.3284 7.825 10 8.66667 10ZM9.27024 10.5625H8.0631C6.92345 10.5625 6 11.4719 6 12.5934C6 12.8184 6.18476 13 6.41262 13H10.9202C11.1488 13 11.3333 12.8184 11.3333 12.5934C11.3333 11.4719 10.4095 10.5625 9.27024 10.5625Z" fill="white"/>
<path d="M8.66667 19C9.50833 19 10.1905 18.3284 10.1905 17.5C10.1905 16.6716 9.50833 16 8.66667 16C7.825 16 7.14286 16.6716 7.14286 17.5C7.14286 18.3284 7.825 19 8.66667 19ZM9.27024 19.5625H8.0631C6.92345 19.5625 6 20.4719 6 21.5934C6 21.8184 6.18476 22 6.41262 22H10.9202C11.1488 22 11.3333 21.8184 11.3333 21.5934C11.3333 20.4719 10.4095 19.5625 9.27024 19.5625Z" fill="white"/>
<rect x="17" y="7" width="23" height="15" rx="2" fill="#79797C"/>
</svg>
