<svg width="45" height="29" viewBox="0 0 45 29" fill="none" xmlns="http://www.w3.org/2000/svg">
<rect width="45" height="29" rx="2" fill="#292A29"/>
<rect x="6" y="4" width="34" height="21" rx="2" fill="#79797C"/>
<path d="M12.6667 19C13.5083 19 14.1905 18.3284 14.1905 17.5C14.1905 16.6716 13.5083 16 12.6667 16C11.825 16 11.1429 16.6716 11.1429 17.5C11.1429 18.3284 11.825 19 12.6667 19ZM13.2702 19.5625H12.0631C10.9235 19.5625 10 20.4719 10 21.5934C10 21.8184 10.1848 22 10.4126 22H14.9202C15.1488 22 15.3333 21.8184 15.3333 21.5934C15.3333 20.4719 14.4095 19.5625 13.2702 19.5625Z" fill="white"/>
</svg>
