<svg width="45" height="29" viewBox="0 0 45 29" fill="none" xmlns="http://www.w3.org/2000/svg">
<rect x="0.5" y="0.5" width="44" height="28" rx="1.5" fill="#292A29" stroke="#3F3DE6"/>
<rect x="4" y="9" width="17" height="11" rx="2" fill="#79797C"/>
<path d="M12.5 14.25C13.1312 14.25 13.6429 13.7463 13.6429 13.125C13.6429 12.5037 13.1312 12 12.5 12C11.8687 12 11.3571 12.5037 11.3571 13.125C11.3571 13.7463 11.8687 14.25 12.5 14.25ZM12.9527 14.6719H12.0473C11.1926 14.6719 10.5 15.3539 10.5 16.195C10.5 16.3638 10.6386 16.5 10.8095 16.5H14.1902C14.3616 16.5 14.5 16.3638 14.5 16.195C14.5 15.3539 13.8071 14.6719 12.9527 14.6719Z" fill="white"/>
<rect x="24" y="9" width="17" height="11" rx="2" fill="#79797C"/>
<path d="M32.5 14.25C33.1312 14.25 33.6429 13.7463 33.6429 13.125C33.6429 12.5037 33.1312 12 32.5 12C31.8687 12 31.3571 12.5037 31.3571 13.125C31.3571 13.7463 31.8687 14.25 32.5 14.25ZM32.9527 14.6719H32.0473C31.1926 14.6719 30.5 15.3539 30.5 16.195C30.5 16.3638 30.6386 16.5 30.8095 16.5H34.1902C34.3616 16.5 34.5 16.3638 34.5 16.195C34.5 15.3539 33.8071 14.6719 32.9527 14.6719Z" fill="white"/>
</svg>
