<svg width="45" height="29" viewBox="0 0 45 29" fill="none" xmlns="http://www.w3.org/2000/svg">
<rect width="45" height="29" rx="2" fill="#292A29"/>
<rect x="6" y="4" width="34" height="21" rx="2" fill="#79797C"/>
<path d="M23 14.5C24.2625 14.5 25.2857 13.4926 25.2857 12.25C25.2857 11.0074 24.2625 10 23 10C21.7375 10 20.7143 11.0074 20.7143 12.25C20.7143 13.4926 21.7375 14.5 23 14.5ZM23.9054 15.3438H22.0946C20.3852 15.3438 19 16.7078 19 18.39C19 18.7275 19.2771 19 19.6189 19H26.3804C26.7232 19 27 18.7275 27 18.39C27 16.7078 25.6143 15.3438 23.9054 15.3438Z" fill="white"/>
</svg>
