<svg width="21" height="21" viewBox="0 0 21 21" fill="none" xmlns="http://www.w3.org/2000/svg">
<g clip-path="url(#clip0_103_1355)">
<path d="M19.3544 0.5H2.00275C1.6042 0.5 1.22197 0.658326 0.940146 0.940146C0.658326 1.22197 0.5 1.6042 0.5 2.00275V19.3544C0.5 19.7529 0.658326 20.1352 0.940146 20.417C1.22197 20.6988 1.6042 20.8571 2.00275 20.8571H19.3544C19.7529 20.8571 20.1352 20.6988 20.417 20.417C20.6988 20.1352 20.8571 19.7529 20.8571 19.3544V2.00275C20.8571 1.6042 20.6988 1.22197 20.417 0.940146C20.1352 0.658326 19.7529 0.5 19.3544 0.5ZM6.56756 17.8417H3.50692V8.11979H6.56756V17.8417ZM5.03512 6.77255C4.68794 6.77059 4.34912 6.66584 4.06143 6.4715C3.77373 6.27717 3.55004 6.00197 3.4186 5.68063C3.28716 5.35929 3.25385 5.00622 3.32288 4.66597C3.39191 4.32572 3.56019 4.01354 3.80647 3.76883C4.05275 3.52413 4.366 3.35786 4.70669 3.29102C5.04738 3.22417 5.40023 3.25974 5.72072 3.39325C6.04121 3.52675 6.31497 3.7522 6.50745 4.04114C6.69993 4.33008 6.80251 4.66956 6.80223 5.01674C6.80551 5.24918 6.76195 5.4799 6.67416 5.69515C6.58637 5.91039 6.45615 6.10576 6.29124 6.26961C6.12634 6.43346 5.93014 6.56243 5.71433 6.64883C5.49853 6.73524 5.26753 6.77731 5.03512 6.77255ZM17.8488 17.8502H14.7896V12.539C14.7896 10.9726 14.1237 10.4891 13.2642 10.4891C12.3566 10.4891 11.466 11.1734 11.466 12.5786V17.8502H8.40536V8.12686H11.3487V9.47411H11.3882C11.6837 8.87612 12.7185 7.85402 14.2976 7.85402C16.0054 7.85402 17.8502 8.86763 17.8502 11.8364L17.8488 17.8502Z" fill="#0A66C2"/>
</g>
<defs>
<clipPath id="clip0_103_1355">
<rect width="20.3571" height="20.3571" fill="white" transform="translate(0.5 0.5)"/>
</clipPath>
</defs>
</svg>
