<svg width="30" height="28" viewBox="0 0 30 28" fill="none" xmlns="http://www.w3.org/2000/svg">
<path d="M2.86979 3.45526C2.86979 2.756 3.47604 2.18964 4.11979 2.18964H5.78646C6.52604 2.18964 7.03646 2.756 7.03646 3.45526V9.78127H7.86979C8.60937 9.78127 9.11979 10.3508 9.11979 11.0469C9.11979 11.7483 8.60937 12.3125 7.86979 12.3125H3.70312C3.05937 12.3125 2.45312 11.7483 2.45312 11.0469C2.45312 10.3508 3.05937 9.78127 3.70312 9.78127H4.53646V4.72089H4.11979C3.47604 4.72089 2.86979 4.15399 2.86979 3.45526ZM6.18229 18.493C5.83854 18.1028 5.22916 18.1291 4.92969 18.5563L4.35052 19.3737C3.94948 19.9432 3.16875 20.075 2.60677 19.669C2.04479 19.2629 1.9151 18.4719 2.31614 17.9076L2.89531 17.085C4.13177 15.3289 6.66146 15.2024 8.0625 16.8266C9.17187 18.0658 9.14583 20.0381 8.00521 21.2932L6.1875 23.2813H7.91666C8.60937 23.2813 9.16666 23.8455 9.16666 24.5469C9.16666 25.2483 8.60937 25.8125 7.91666 25.8125H3.33333C2.83698 25.8125 2.3875 25.5172 2.18854 25.0531C1.98906 24.5944 2.07812 24.0565 2.41458 23.6873L6.16667 19.574C6.44271 19.2682 6.44791 18.8041 6.18229 18.493ZM26.6667 3.87503C27.5885 3.87503 28.3333 4.63071 28.3333 5.56253C28.3333 6.49592 27.5885 7.25003 26.6667 7.25003H13.3333C12.4115 7.25003 11.6667 6.49592 11.6667 5.56253C11.6667 4.63071 12.4115 3.87503 13.3333 3.87503H26.6667ZM26.6667 12.3125C27.5885 12.3125 28.3333 13.0666 28.3333 14C28.3333 14.9334 27.5885 15.6875 26.6667 15.6875H13.3333C12.4115 15.6875 11.6667 14.9334 11.6667 14C11.6667 13.0666 12.4115 12.3125 13.3333 12.3125H26.6667ZM26.6667 20.75C27.5885 20.75 28.3333 21.5041 28.3333 22.4375C28.3333 23.3709 27.5885 24.125 26.6667 24.125H13.3333C12.4115 24.125 11.6667 23.3709 11.6667 22.4375C11.6667 21.5041 12.4115 20.75 13.3333 20.75H26.6667Z" fill="#292A29"/>
</svg>
