<svg width="18" height="25" viewBox="0 0 18 25" fill="none" xmlns="http://www.w3.org/2000/svg">
<path d="M9 17.1875C11.4858 17.1875 13.5 15.0894 13.5 12.5V4.6875C13.5 2.09814 11.4858 0 9 0C6.51422 0 4.5 2.09814 4.5 4.6875V12.5C4.5 15.0879 6.47344 17.1875 9 17.1875ZM16.125 9.375C15.5016 9.375 15 9.89746 15 10.5029V12.5C15 16.0806 12.0952 18.9648 8.61094 18.7354C5.51344 18.5318 3 15.4839 3 12.251V10.5029C3 9.89746 2.49609 9.375 1.875 9.375C1.25391 9.375 0.75 9.89746 0.75 10.5029V12.0728C0.75 16.4507 3.74859 20.354 7.875 20.9448V22.6562H6C5.14734 22.6562 4.46062 23.3975 4.50187 24.2954C4.52016 24.6973 4.86562 25 5.25 25H12.75C13.1354 25 13.4798 24.6965 13.4981 24.2954C13.5375 23.3984 12.8531 22.6562 12 22.6562H10.125V21.0073C14.1422 20.4346 17.25 16.8408 17.25 12.5V10.5029C17.25 9.89746 16.7484 9.375 16.125 9.375Z" fill="#292A29"/>
</svg>
