<svg width="31" height="36" viewBox="0 0 31 36" fill="none" xmlns="http://www.w3.org/2000/svg">
<path d="M6.64286 7.0625C2.97406 7.0625 0 9.94043 0 13.625C0 17.3096 2.97406 20.1875 6.64286 20.1875C7.42339 20.1875 8.16172 20.0299 8.85714 19.7856V20.1875C8.85714 22.6006 6.8712 24.5625 4.42857 24.5625C3.20587 24.5625 2.21429 25.5421 2.21429 26.75C2.21429 27.9579 3.20587 28.9375 4.42857 28.9375C9.31246 28.9375 13.2857 25.0123 13.2857 20.1875V13.625C13.2857 9.94043 10.3103 7.0625 6.64286 7.0625ZM31 13.625C31 10.0006 28.0259 7.0625 24.3571 7.0625C20.6883 7.0625 17.7143 10.0006 17.7143 13.625C17.7143 17.2494 20.6883 20.1875 24.3571 20.1875C25.1377 20.1875 25.876 20.0299 26.5714 19.7856V20.1875C26.5714 22.6006 24.5855 24.5625 22.1429 24.5625C20.9202 24.5625 19.9286 25.5421 19.9286 26.75C19.9286 27.9579 20.9202 28.9375 22.1429 28.9375C27.0267 28.9375 31 25.0123 31 20.1875V13.625Z" fill="#292A29"/>
</svg>
