<svg width="25" height="25" viewBox="0 0 25 25" fill="none" xmlns="http://www.w3.org/2000/svg">
<path d="M12.5 7.8125C9.90723 7.8125 7.8125 9.90723 7.8125 12.5C7.8125 15.0928 9.9082 17.1875 12.5 17.1875C15.0918 17.1875 17.1875 15.0918 17.1875 12.5C17.1875 9.9082 15.0928 7.8125 12.5 7.8125ZM12.5 14.0625C11.6357 14.0625 10.9375 13.3643 10.9375 12.5C10.9375 11.6357 11.6372 10.9375 12.5 10.9375C13.3628 10.9375 14.0625 11.6372 14.0625 12.5C14.0625 13.3628 13.3643 14.0625 12.5 14.0625ZM12.5 0C5.5957 0 0 5.5957 0 12.5C0 19.4043 5.5957 25 12.5 25C19.4043 25 25 19.4043 25 12.5C25 5.5957 19.4043 0 12.5 0ZM12.5 18.75C9.04541 18.75 6.25 15.9546 6.25 12.5C6.25 9.04541 9.04541 6.25 12.5 6.25C15.9546 6.25 18.75 9.04541 18.75 12.5C18.75 15.9546 15.957 18.75 12.5 18.75Z" fill="#292A29"/>
</svg>
