<svg width="24" height="24" viewBox="0 0 24 24" fill="none" xmlns="http://www.w3.org/2000/svg">
<path d="M4 8.72705C4 6.01647 4 4.66119 4.87868 3.81912C5.75736 2.97705 7.17157 2.97705 10 2.97705H14C16.8284 2.97705 18.2426 2.97705 19.1213 3.81912C20 4.66119 20 6.01647 20 8.72705V15.2702C20 17.8417 20 19.1274 19.1557 19.5207C18.3114 19.9139 17.2565 19.1196 15.1465 17.5308L14.4713 17.0224C13.2849 16.1291 12.6917 15.6824 12 15.6824C11.3083 15.6824 10.7151 16.1291 9.52871 17.0224L8.85346 17.5308C6.74355 19.1196 5.68859 19.9139 4.84429 19.5207C4 19.1274 4 17.8417 4 15.2702V8.72705Z" stroke="#292A29"/>
</svg>
