<svg width="36" height="32" viewBox="0 0 36 32" fill="none" xmlns="http://www.w3.org/2000/svg">
<path d="M2 6C2 3.79063 3.79063 2 6 2H30C32.2062 2 34 3.79063 34 6V26C34 28.2062 32.2062 30 30 30H6C3.79063 30 2 28.2062 2 26V6ZM11 16C11 14.8938 10.1062 14 9 14C7.89375 14 7 14.8938 7 16C7 17.1062 7.89375 18 9 18C10.1062 18 11 17.1062 11 16ZM11 10C11 8.89375 10.1062 8 9 8C7.89375 8 7 8.89375 7 10C7 11.1062 7.89375 12 9 12C10.1062 12 11 11.1062 11 10ZM11 22C11 20.8937 10.1062 20 9 20C7.89375 20 7 20.8937 7 22C7 23.1063 7.89375 24 9 24C10.1062 24 11 23.1063 11 22ZM15 8.5C14.1687 8.5 13.5 9.16875 13.5 10C13.5 10.8313 14.1687 11.5 15 11.5H27C27.8312 11.5 28.5 10.8313 28.5 10C28.5 9.16875 27.8312 8.5 27 8.5H15ZM15 14.5C14.1687 14.5 13.5 15.1687 13.5 16C13.5 16.8313 14.1687 17.5 15 17.5H27C27.8312 17.5 28.5 16.8313 28.5 16C28.5 15.1687 27.8312 14.5 27 14.5H15ZM15 20.5C14.1687 20.5 13.5 21.1688 13.5 22C13.5 22.8312 14.1687 23.5 15 23.5H27C27.8312 23.5 28.5 22.8312 28.5 22C28.5 21.1688 27.8312 20.5 27 20.5H15Z" fill="#292A29"/>
</svg>
