<svg width="26" height="26" viewBox="0 0 26 26" fill="none" xmlns="http://www.w3.org/2000/svg">
<g clip-path="url(#clip0_155_1250)">
<path d="M24.375 13.0001C23.4777 13.0001 22.75 13.7268 22.75 14.6251C22.75 17.3135 20.5634 19.5001 17.875 19.5001H9.75V17.4689C9.75 16.988 9.46674 16.5518 9.02738 16.3547C8.58711 16.1638 8.07422 16.24 7.71367 16.565L3.65117 20.2212C3.39676 20.4497 3.25 20.7798 3.25 21.1251C3.25 21.4704 3.39681 21.7995 3.6531 22.0311L7.7156 25.6873C7.94219 25.8935 8.23672 26.0001 8.53125 26.0001C8.69944 26.0001 8.86717 25.9652 9.02667 25.8954C9.46562 25.7005 9.75 25.2638 9.75 24.7814V22.7501H17.875C22.3549 22.7501 26 19.105 26 14.6251C26 13.7263 25.2738 13.0001 24.375 13.0001ZM8.125 6.50011H16.2043L16.25 8.53136C16.25 9.01221 16.5333 9.44847 16.9726 9.6455C17.1336 9.71456 17.3012 9.75011 17.423 9.75011C17.7182 9.75011 18.0106 9.6422 18.2391 9.4375L22.3016 5.78125C22.6027 5.5505 22.75 5.22042 22.75 4.82941C22.75 4.43839 22.6032 4.15503 22.3469 3.92347L18.2844 0.267217C17.9265 -0.053314 17.4115 -0.132685 16.9727 0.0593188C16.5344 0.301647 16.2043 0.73796 16.2043 1.21886L16.25 3.25011H8.125C3.64508 3.25011 0 6.8962 0 11.3751C0 12.2734 0.727695 13.0001 1.625 13.0001C2.5223 13.0001 3.25 12.2734 3.25 11.3751C3.25 8.68878 5.43867 6.50011 8.125 6.50011Z" fill="#292A29"/>
</g>
<defs>
<clipPath id="clip0_155_1250">
<rect width="26" height="26" fill="white"/>
</clipPath>
</defs>
</svg>
