<svg width="24" height="27" viewBox="0 0 24 27" fill="none" xmlns="http://www.w3.org/2000/svg">
<path d="M11.3464 17.9191C10.7625 18.4939 9.80893 18.4939 9.225 17.9191L5.79643 14.5441C5.21089 13.9693 5.21089 13.0307 5.79643 12.4559C6.38036 11.8811 7.33393 11.8811 7.91786 12.4559L10.2857 14.7867L16.0821 9.08086C16.6661 8.50605 17.6196 8.50605 18.2036 9.08086C18.7875 9.65566 18.7875 10.5943 18.2036 11.1691L11.3464 17.9191ZM0 5.0625C0 3.19834 1.53482 1.6875 3.42857 1.6875H20.5714C22.4625 1.6875 24 3.19834 24 5.0625V21.9375C24 23.799 22.4625 25.3125 20.5714 25.3125H3.42857C1.53482 25.3125 0 23.799 0 21.9375V5.0625ZM2.57143 5.0625V21.9375C2.57143 22.4016 2.955 22.7812 3.42857 22.7812H20.5714C21.0429 22.7812 21.4286 22.4016 21.4286 21.9375V5.0625C21.4286 4.59633 21.0429 4.21875 20.5714 4.21875H3.42857C2.955 4.21875 2.57143 4.59633 2.57143 5.0625Z" fill="#292A29"/>
</svg>
