<svg width="30" height="31" viewBox="0 0 30 31" fill="none" xmlns="http://www.w3.org/2000/svg">
<path d="M12.8841 9.52489C13.6867 7.52403 14.088 6.5236 14.74 6.38495C14.9114 6.34849 15.0886 6.34849 15.26 6.38495C15.912 6.5236 16.3133 7.52403 17.1159 9.52489C17.5723 10.6627 17.8005 11.2317 18.2275 11.6186C18.3473 11.7272 18.4773 11.8238 18.6158 11.9073C19.1093 12.2047 19.7254 12.2599 20.9576 12.3703C23.0436 12.5571 24.0866 12.6505 24.4051 13.2452C24.471 13.3683 24.5159 13.5017 24.5378 13.6397C24.6433 14.306 23.8766 15.0035 22.3431 16.3987L21.9173 16.7861C21.2003 17.4384 20.8419 17.7645 20.6345 18.1715C20.5102 18.4156 20.4268 18.6786 20.3877 18.9498C20.3226 19.4019 20.4275 19.875 20.6375 20.8212L20.7125 21.1593C21.089 22.8562 21.2772 23.7047 21.0422 24.1217C20.8311 24.4963 20.4423 24.7362 20.0128 24.7567C19.5347 24.7795 18.861 24.2305 17.5135 23.1325C16.6257 22.4091 16.1818 22.0474 15.6891 21.9061C15.2388 21.777 14.7612 21.777 14.3109 21.9061C13.8182 22.0474 13.3743 22.4091 12.4865 23.1325C11.1391 24.2305 10.4653 24.7795 9.98717 24.7567C9.55767 24.7362 9.16886 24.4963 8.95778 24.1217C8.72279 23.7047 8.91103 22.8562 9.28753 21.1593L9.36254 20.8212C9.57248 19.875 9.67745 19.4019 9.61231 18.9498C9.57323 18.6786 9.48984 18.4156 9.36546 18.1715C9.15812 17.7645 8.79966 17.4384 8.08272 16.7861L7.65688 16.3987C6.1234 15.0035 5.35665 14.306 5.46225 13.6397C5.48412 13.5017 5.52896 13.3683 5.59493 13.2452C5.91343 12.6505 6.9564 12.5571 9.04236 12.3703C10.2746 12.2599 10.8907 12.2047 11.3843 11.9073C11.5227 11.8238 11.6527 11.7272 11.7725 11.6186C12.1995 11.2317 12.4277 10.6627 12.8841 9.52489Z" fill="#292A29" stroke="#292A29" stroke-width="2"/>
</svg>
