<svg width="27" height="28" viewBox="0 0 27 28" fill="none" xmlns="http://www.w3.org/2000/svg">
<path d="M17.5184 17.3698C18.4264 18.0115 18.6959 18.7677 18.4997 19.9121C18.3399 20.8397 17.926 21.4593 17.1962 21.8627C15.3272 22.9042 11.4745 22.4934 7.38756 20.8249C6.52588 20.4723 5.54027 20.8859 5.18748 21.7493C4.83469 22.6128 5.25013 23.5977 6.11191 23.9489C7.78623 24.6308 11.1581 25.8141 14.4229 25.8141C15.9848 25.8141 17.5242 25.5422 18.8378 24.8143C20.4625 23.913 21.4977 22.417 21.8289 20.4842C22.0397 19.2571 21.9432 18.2388 21.6449 17.3703H17.5184V17.3698ZM25.7344 13.151L16.4268 13.1494C15.5909 12.8534 14.7482 12.6041 13.9641 12.3784C9.45685 11.0801 8.11582 10.3191 8.49551 8.08951C8.62734 7.32328 9.03129 6.72053 9.69363 6.29496C10.7731 5.6015 13.0718 5.03777 17.8886 6.31309C18.7898 6.55203 19.7126 6.01493 19.9521 5.11391C20.191 4.21268 19.6538 3.28983 18.7523 3.05094C13.9372 1.77583 10.2779 1.91083 7.87324 3.45457C6.42305 4.38761 5.46328 5.83147 5.17271 7.51897C4.70707 10.2295 5.69004 11.9592 7.23516 13.151H1.26562C0.566895 13.151 0 13.7179 0 14.3692C0 15.0679 0.566895 15.5873 1.26562 15.5873H25.7344C26.4331 15.5873 27 15.0204 27 14.3692C27 13.7205 26.4357 13.151 25.7344 13.151Z" fill="#292A29"/>
</svg>
