<svg width="21" height="21" viewBox="0 0 21 21" fill="none" xmlns="http://www.w3.org/2000/svg">
<g clip-path="url(#clip0_103_1352)">
<path d="M6.90191 18.9492C14.5839 18.9492 18.7856 12.5847 18.7856 7.06551C18.7856 6.88474 18.7856 6.70478 18.7734 6.52564C19.5908 5.9344 20.2964 5.20233 20.8571 4.36371C20.0949 4.70164 19.2863 4.92315 18.4583 5.02084C19.3302 4.49892 19.9828 3.67793 20.2945 2.71071C19.4746 3.19725 18.5777 3.54012 17.6423 3.7245C17.0126 3.0549 16.1798 2.6115 15.2727 2.46293C14.3656 2.31436 13.4348 2.4689 12.6243 2.90262C11.8139 3.33635 11.169 4.02508 10.7895 4.86225C10.4099 5.69941 10.3168 6.63834 10.5247 7.53373C8.86415 7.45043 7.2397 7.01889 5.75677 6.26711C4.27384 5.51533 2.96556 4.46012 1.91686 3.16997C1.38276 4.08943 1.21918 5.17788 1.45941 6.21372C1.69965 7.24955 2.32565 8.15488 3.20994 8.74538C2.54524 8.72591 1.89501 8.54659 1.31429 8.22261V8.27554C1.31455 9.23983 1.64836 10.1743 2.25909 10.9206C2.86982 11.6668 3.71987 12.1788 4.66507 12.3698C4.05018 12.5375 3.40503 12.562 2.77919 12.4414C3.04618 13.2713 3.56581 13.9969 4.26543 14.517C4.96504 15.037 5.80967 15.3254 6.68124 15.3419C5.81528 16.0226 4.82362 16.5258 3.76297 16.8229C2.70233 17.1199 1.59353 17.205 0.5 17.0731C2.41004 18.2988 4.63244 18.9489 6.90191 18.9459" fill="#1DA1F2"/>
</g>
<defs>
<clipPath id="clip0_103_1352">
<rect width="20.3571" height="20.3571" fill="white" transform="translate(0.5 0.5)"/>
</clipPath>
</defs>
</svg>
