<svg width="31" height="25" viewBox="0 0 31 25" fill="none" xmlns="http://www.w3.org/2000/svg">
<path d="M10.85 12.5C14.2745 12.5 17.05 9.70166 17.05 6.25C17.05 2.79834 14.2745 0 10.85 0C7.42547 0 4.65 2.79834 4.65 6.25C4.65 9.70166 7.42547 12.5 10.85 12.5ZM13.3058 14.8438H8.39422C3.7573 14.8438 0 18.6328 0 23.3057C0 24.2432 0.75175 25 1.67884 25H20.0192C20.9492 25 21.7 24.2432 21.7 23.3057C21.7 18.6328 17.9412 14.8438 13.3058 14.8438ZM23.2064 15.625H19.6293C21.855 17.4658 23.25 20.2197 23.25 23.3057C23.25 23.9307 23.0659 24.5068 22.7656 25H29.45C30.3073 25 31 24.2969 31 23.3936C31 19.1211 27.5319 15.625 23.2064 15.625ZM20.925 12.5C23.9233 12.5 26.35 10.0537 26.35 7.03125C26.35 4.00879 23.9233 1.5625 20.925 1.5625C19.7087 1.5625 18.5981 1.98022 17.6932 2.66162C18.2512 3.7417 18.6 4.95117 18.6 6.25C18.6 7.98438 18.0221 9.57715 17.0699 10.8745C18.0527 11.875 19.4137 12.5 20.925 12.5Z" fill="#292A29"/>
</svg>
