<svg width="26" height="26" viewBox="0 0 26 26" fill="none" xmlns="http://www.w3.org/2000/svg">
<path d="M10.6562 12.8867C14.0196 12.8867 16.7455 10.0884 16.7455 6.63672C16.7455 3.18506 14.0196 0.386719 10.6562 0.386719C7.29287 0.386719 4.56696 3.18506 4.56696 6.63672C4.56696 10.0884 7.29287 12.8867 10.6562 12.8867ZM13.0682 15.2305H8.24432C3.6902 15.2305 0 19.0195 0 23.6924C0 24.6299 0.738326 25.3867 1.64886 25.3867H19.6617C20.5751 25.3867 21.3125 24.6299 21.3125 23.6924C21.3125 19.0195 17.6209 15.2305 13.0682 15.2305Z" fill="#292A29"/>
<path d="M22.6501 1.45117C22.6501 1.03696 22.3143 0.701172 21.9001 0.701172C21.4859 0.701172 21.1501 1.03696 21.1501 1.45117H22.6501ZM21.1501 7.69117C21.1501 8.10539 21.4859 8.44117 21.9001 8.44117C22.3143 8.44117 22.6501 8.10539 22.6501 7.69117H21.1501ZM21.1501 1.45117V7.69117H22.6501V1.45117H21.1501Z" fill="#292A29"/>
<path d="M24.8 5.32129C25.2142 5.32129 25.55 4.9855 25.55 4.57129C25.55 4.15708 25.2142 3.82129 24.8 3.82129L24.8 5.32129ZM19 3.82129C18.5858 3.82129 18.25 4.15708 18.25 4.57129C18.25 4.9855 18.5858 5.32129 19 5.32129L19 3.82129ZM24.8 3.82129L19 3.82129L19 5.32129L24.8 5.32129L24.8 3.82129Z" fill="#292A29"/>
</svg>
