<svg width="29" height="29" viewBox="0 0 29 29" fill="none" xmlns="http://www.w3.org/2000/svg">
<path d="M3.18208 0.5H13.0929C14.2199 0.5 15.2939 0.931409 16.0894 1.70014L27.757 12.9622C29.4143 14.5624 29.4143 17.1611 27.757 18.7613L18.9135 27.2999C17.2561 28.9 14.5646 28.9 12.9073 27.2999L1.243 16.0346C0.447016 15.2665 0 14.2296 0 13.1414V3.57235C0 1.87552 1.42464 0.5 3.18208 0.5ZM7.42485 9.71705C8.59824 9.71705 9.54623 8.80175 9.54623 7.66882C9.54623 6.53589 8.59824 5.62058 7.42485 5.62058C6.25345 5.62058 5.30346 6.53589 5.30346 7.66882C5.30346 8.80175 6.25345 9.71705 7.42485 9.71705Z" fill="#292A29"/>
</svg>
