<svg width="28" height="25" viewBox="0 0 28 25" fill="none" xmlns="http://www.w3.org/2000/svg">
<path d="M13.9768 0C6.23034 0 0.00136983 5.19678 0.00136983 11.6079C0.00136983 14.3771 1.17101 16.9085 3.12243 18.9019C2.43762 21.7129 0.149287 24.2187 0.121895 24.2466C-0.00136939 24.3722 -0.0356095 24.5666 0.0397188 24.734C0.108144 24.9014 0.260006 25 0.438055 25C4.06751 25 6.74372 23.2276 8.14072 22.1321C9.92833 22.8157 11.9219 23.2142 14.0245 23.2142C21.771 23.2142 28 18.0168 28 11.6565C28 5.29611 21.7233 0 13.9768 0ZM6.91514 13.3938C5.94272 13.3938 5.16204 12.5985 5.16204 11.6581C5.16204 10.7178 5.94272 9.87231 6.91514 9.87231C7.88756 9.87231 8.66823 10.6676 8.66823 11.6581C8.66823 12.6487 7.93413 13.3938 6.91514 13.3938ZM13.9768 13.3938C13.0044 13.3938 12.273 12.5985 12.273 11.6581C12.273 10.7178 13.0537 9.87231 13.9768 9.87231C14.8999 9.87231 15.6806 10.6676 15.6806 11.6581C15.6806 12.6487 14.952 13.3938 13.9768 13.3938ZM20.9399 13.3938C19.9675 13.3938 19.1868 12.5985 19.1868 11.6581C19.1868 10.7178 19.9675 9.87231 20.9399 9.87231C21.9123 9.87231 22.693 10.6676 22.693 11.6581C22.693 12.6487 21.9589 13.3938 20.9399 13.3938Z" fill="#292A29"/>
</svg>
