<svg width="29" height="23" viewBox="0 0 29 23" fill="none" xmlns="http://www.w3.org/2000/svg">
<g clip-path="url(#clip0_154_1187)">
<path d="M1.44989 17.9283C1.44989 19.1192 2.42366 20.0441 3.58411 20.0441H16.5933C17.4801 20.0441 18.24 19.5163 18.5785 18.7612L1.44989 5.47148V17.9283ZM28.583 21.0729L24.5407 17.9319L25.2652 18.427C26.2268 19.0824 27.5494 18.4136 27.5494 17.268V5.72754C27.5494 4.58607 26.2322 3.91404 25.2661 4.57035L20.2999 7.96465L20.2999 14.6355L18.8499 13.5089L18.8499 5.03215C18.8499 3.84127 17.8761 2.91633 16.7157 2.91633H5.16099L1.75847 0.229596C1.5591 0.0751543 1.32256 0 1.08875 0C0.766127 0 0.445768 0.141863 0.231938 0.412787C-0.139035 0.881816 -0.0567022 1.55969 0.41627 1.9267L27.2005 22.73C27.6763 23.0985 28.3591 23.0143 28.7271 22.5468C29.1404 22.1195 29.0543 21.4412 28.583 21.0729Z" fill="#292A29"/>
</g>
<defs>
<clipPath id="clip0_154_1187">
<rect width="29" height="23" fill="white"/>
</clipPath>
</defs>
</svg>
