<svg width="24" height="25" viewBox="0 0 24 25" fill="none" xmlns="http://www.w3.org/2000/svg">
<path fill-rule="evenodd" clip-rule="evenodd" d="M15.9202 13.2988C15.9725 13.0407 16 12.7736 16 12.5C16 10.2909 14.2091 8.5 12 8.5C11.7264 8.5 11.4593 8.52746 11.2012 8.57977L12.1239 9.50251C13.6822 9.56583 14.9342 10.8178 14.9975 12.3761L15.9202 13.2988ZM9.39311 11.0143C9.14295 11.4523 9 11.9595 9 12.5C9 14.1569 10.3431 15.5 12 15.5C12.5405 15.5 13.0477 15.357 13.4857 15.1069L14.212 15.8332C13.5784 16.2545 12.8179 16.5 12 16.5C9.79086 16.5 8 14.7091 8 12.5C8 11.6821 8.24547 10.9216 8.66676 10.288L9.39311 11.0143Z" fill="#292A29"/>
<path fill-rule="evenodd" clip-rule="evenodd" d="M16.1537 17.7751L15.4193 17.0406C14.3553 17.6196 13.1987 18 12 18C10.3282 18 8.73816 17.2599 7.36714 16.2735C6.00006 15.29 4.89306 14.0918 4.19792 13.2478C3.77356 12.7326 3.72974 12.6435 3.72974 12.5C3.72974 12.3565 3.77356 12.2674 4.19792 11.7522C4.86721 10.9396 5.9183 9.79863 7.21572 8.83704L6.50139 8.12271C5.16991 9.13072 4.10383 10.2935 3.42604 11.1164L3.36723 11.1876C3.03671 11.587 2.72974 11.9579 2.72974 12.5C2.72974 13.0421 3.0367 13.413 3.36723 13.8124L3.42604 13.8836C4.15099 14.7638 5.32014 16.0327 6.78312 17.0853C8.24216 18.135 10.0361 19 12 19C13.5101 19 14.9196 18.4886 16.1537 17.7751ZM9.18993 6.56861C10.0698 6.21828 11.0135 6 12 6C13.9639 6 15.7579 6.865 17.2169 7.91472C18.6799 8.96727 19.849 10.2362 20.574 11.1164L20.6328 11.1876C20.9633 11.587 21.2703 11.9579 21.2703 12.5C21.2703 13.0421 20.9633 13.413 20.6328 13.8124L20.574 13.8836C20.0935 14.4669 19.418 15.221 18.5911 15.9697L17.883 15.2617C18.6787 14.5456 19.3338 13.8164 19.8021 13.2478C20.2265 12.7326 20.2703 12.6435 20.2703 12.5C20.2703 12.3565 20.2265 12.2674 19.8021 11.7522C19.107 10.9082 18 9.71001 16.6329 8.72646C15.2619 7.74007 13.6718 7 12 7C11.3056 7 10.6253 7.12768 9.96897 7.34765L9.18993 6.56861Z" fill="#292A29"/>
<path d="M5 2.5L21 18.5" stroke="#292A29"/>
</svg>
