<svg width="30" height="30" viewBox="0 0 30 30" fill="none" xmlns="http://www.w3.org/2000/svg">
<path d="M26.25 1.875C27.2871 1.875 28.125 2.71465 28.125 3.75C28.125 4.78535 27.2871 5.625 26.25 5.625H4.6875C4.16953 5.625 3.75 6.04688 3.75 6.5625C3.75 7.07812 4.16953 7.5 4.6875 7.5H26.25C28.3184 7.5 30 9.18164 30 11.25V24.375C30 26.4434 28.3184 28.125 26.25 28.125H3.75C1.67871 28.125 0 26.4434 0 24.375V5.625C0 3.55371 1.67871 1.875 3.75 1.875H26.25ZM24.375 19.6875C25.4121 19.6875 26.25 18.8496 26.25 17.8125C26.25 16.7754 25.4121 15.9375 24.375 15.9375C23.3379 15.9375 22.5 16.7754 22.5 17.8125C22.5 18.8496 23.3379 19.6875 24.375 19.6875Z" fill="#292A29"/>
</svg>
